<?xml version="1.0" encoding="iso-8859-1"?>
<!-- Uploaded to: SVG Repo, www.svgrepo.com, Generator: SVG Repo Mixer Tools -->
<svg height="800px" width="800px" version="1.1" id="Layer_1" xmlns="http://www.w3.org/2000/svg" xmlns:xlink="http://www.w3.org/1999/xlink" 
	 viewBox="0 0 512.001 512.001" xml:space="preserve">
<path d="M369.01,415.052h0.109H369.01z"/>
<path d="M369.01,415.697h0.109H369.01z"/>
<g>
	<path style="fill:#DAE1E6;" d="M296.099,343.4l-54.113-83.392c-3.577-5.529-3.588-12.65,0-18.179l39.859-61.457
		c3.087-4.746,8.361-7.611,14.015-7.611h0.011c5.665,0.006,10.938,2.876,14.015,7.628l70.03,108.22
		c6.224,9.647,1.099,22.546-10.036,25.29c-18.505,4.556-35.009,15.39-46.459,30.498C316.439,353.609,302.425,353.133,296.099,343.4z
		"/>
	<path style="fill:#DAE1E6;" d="M216.141,206.162L216.141,206.162c-5.654,0-10.938-2.865-14.015-7.611L97.141,36.675
		c-5.001-7.72-2.827-18.037,4.882-23.066C120.67,1.409,142.969-2.783,164.812,1.822c21.843,4.594,40.576,17.428,52.743,36.135
		l52.46,80.968c3.577,5.523,3.577,12.64,0,18.168l-39.859,61.457C227.079,203.297,221.795,206.162,216.141,206.162z"/>
</g>
<path style="fill:#EDF0F2;" d="M188.579,344.395c-11.535-15.222-28.041-26.046-46.48-30.476
	c-11.209-2.692-16.356-15.679-10.111-25.322L294.424,37.991c12.188-18.739,30.921-31.573,52.765-36.167
	c21.865-4.605,44.132-0.407,62.788,11.78c7.709,5.033,9.883,15.352,4.882,23.072L215.902,343.4
	C209.576,353.133,195.562,353.609,188.579,344.395z"/>
<path style="fill:#E56722;" d="M389.602,278.198c-65.491,0-116.902,53.59-116.902,116.902c0,64.458,52.439,116.902,116.902,116.902
	s116.902-52.443,116.902-116.902S454.065,278.198,389.602,278.198z M389.602,445.2c-27.627,0-50.101-22.474-50.101-50.101
	c0-27.087,22.217-50.101,50.101-50.101c27.627,0,50.101,22.474,50.101,50.101C439.703,422.726,417.229,445.2,389.602,445.2z"/>
<path style="fill:#F37B2A;" d="M122.399,278.198c-64.463,0-116.902,52.444-116.902,116.902s52.439,116.902,116.902,116.902
	S239.3,459.558,239.3,395.099C239.3,331.908,188.028,278.198,122.399,278.198z M122.399,445.2
	c-27.627,0-50.101-22.474-50.101-50.101c0-27.627,22.474-50.101,50.101-50.101c29.134,0,50.101,24.161,50.101,50.101
	C172.499,422.726,150.025,445.2,122.399,445.2z"/>
<circle style="fill:#DAE1E6;" cx="261.571" cy="187.556" r="28.526"/>
</svg>